<?xml version="1.0" encoding="UTF-8" standalone="no"?>
<svg width="288px" height="288px" viewBox="0 0 288 288" version="1.1" xmlns="http://www.w3.org/2000/svg" xmlns:xlink="http://www.w3.org/1999/xlink" xmlns:sketch="http://www.bohemiancoding.com/sketch/ns">
    <!-- Generator: Sketch 3.3.3 (12081) - http://www.bohemiancoding.com/sketch -->
    <title>duopi_icon_288</title>
    <desc>Created with Sketch.</desc>
    <defs>
        <path id="path-1" d="M100.4088,0 L187.5912,0 C216.504,0 230.9568,0 246.5208,4.92 C263.5128,11.1048 276.8952,24.4872 283.08,41.4792 C288,57.0408 288,71.4984 288,100.4088 L288,187.5912 C288,216.504 288,230.9568 283.08,246.5208 C276.8952,263.5128 263.5128,276.8952 246.5208,283.0776 C230.9568,288 216.504,288 187.5912,288 L100.4088,288 C71.496,288 57.0408,288 41.4792,283.0776 C24.4872,276.8952 11.1048,263.5128 4.92,246.5208 C0,230.9568 0,216.504 0,187.5912 L0,100.4088 C0,71.4984 0,57.0408 4.92,41.4792 C11.1048,24.4872 24.4872,11.1048 41.4792,4.92 C57.0408,0 71.496,0 100.4088,0 L100.4088,0"></path>
    </defs>
    <g id="Page-1" stroke="none" stroke-width="1" fill="none" fill-rule="evenodd" sketch:type="MSPage">
        <g id="duopi_icon_288" sketch:type="MSArtboardGroup">
            <g id="Group" sketch:type="MSLayerGroup">
                <g>
                    <mask id="mask-2" sketch:name="Mask" fill="white">
                        <use xlink:href="#path-1"></use>
                    </mask>
                    <use id="Mask" fill="#D7D7D7" sketch:type="MSShapeGroup" xlink:href="#path-1"></use>
                    <g mask="url(#mask-2)" sketch:type="MSShapeGroup">
                        <rect id="Rectangle-1" fill="#F6F991" x="0" y="0" width="96" height="96"></rect>
                        <rect id="Rectangle-1-Copy-6" fill="#4AE5D9" x="0" y="96" width="96" height="96"></rect>
                        <rect id="Rectangle-1-Copy-7" fill="#4695DB" x="192" y="96" width="96" height="96"></rect>
                        <rect id="Rectangle-1-Copy-4" fill="#F7D74F" x="96" y="0" width="96" height="96"></rect>
                        <rect id="Rectangle-1-Copy-5" fill="#3BA1C4" x="96" y="192" width="96" height="96"></rect>
                        <rect id="Rectangle-1-Copy" fill="#F29E53" x="192" y="0" width="96" height="96"></rect>
                        <rect id="Rectangle-1-Copy-2" fill="#3D7CC1" x="192" y="192" width="96" height="96"></rect>
                        <rect id="Rectangle-1-Copy-3" fill="#3DC1BA" x="0" y="192" width="96" height="96"></rect>
                        <path d="M202.544156,87.9443292 L368.855671,254.255844 L253.455844,369.655671 L87.1443292,203.344156 L202.544156,87.9443292 L202.544156,87.9443292 Z" id="Rectangle-19" fill-opacity="0.15" fill="#000000"></path>
                        <ellipse id="Oval-1" fill="#FFFFFF" cx="144" cy="144" rx="81.6" ry="81.6"></ellipse>
                        <ellipse id="Oval-2" fill="#2F475D" cx="144" cy="144" rx="48" ry="48"></ellipse>
                    </g>
                </g>
            </g>
        </g>
    </g>
</svg>